<?xml version="1.0" standalone="no"?>
<!DOCTYPE svg PUBLIC "-//W3C//DTD SVG 1.1//EN" "http://www.w3.org/Graphics/SVG/1.1/DTD/svg11.dtd" >
<svg xmlns="http://www.w3.org/2000/svg">
<metadata></metadata>
<defs>
<font id="chaletmedium" horiz-adv-x="1531" >
<font-face units-per-em="2048" ascent="1638" descent="-410" />
<missing-glyph horiz-adv-x="604" />
<glyph unicode="&#xfb01;" horiz-adv-x="911" d="M20 979v76h144v73q0 88 24.5 159t70.5 118t112.5 70.5t152.5 15.5v-70q-150 8 -216 -74.5t-66 -224.5v-67h514v-1055h-76v979h-438v-979h-78v979h-144zM680 1233v188h76v-188h-76z" />
<glyph unicode="&#xfb02;" horiz-adv-x="921" d="M20 979v76h144v73q0 88 24.5 159t70.5 118t112.5 70.5t152.5 15.5v-70q-150 8 -216 -74.5t-66 -224.5v-67h282v-76h-282v-979h-78v979h-144zM690 0v1524h76v-1524h-76z" />
<glyph horiz-adv-x="2048" />
<glyph horiz-adv-x="2048" />
<glyph unicode="&#xd;" horiz-adv-x="604" />
<glyph unicode=" "  horiz-adv-x="604" />
<glyph unicode="&#x09;" horiz-adv-x="604" />
<glyph unicode="&#xa0;" horiz-adv-x="604" />
<glyph unicode="!" horiz-adv-x="421" d="M174 0v190h76v-190h-76zM174 367v1054h76v-1054h-76z" />
<glyph unicode="&#x22;" horiz-adv-x="477" d="M106 1055v366h76v-366h-76zM297 1055v366h76v-366h-76z" />
<glyph unicode="#" horiz-adv-x="1058" d="M37 438l12 76h215l58 395h-216l11 76h217l53 361h76l-53 -361h321l51 361h78l-53 -361h217l-10 -76h-217l-58 -395h217l-12 -76h-217l-51 -362h-78l53 362h-319l-53 -362h-78l53 362h-217zM342 514h320l59 395h-322z" />
<glyph unicode="$" horiz-adv-x="997" d="M61 477h76q0 -76 26.5 -133t72 -96t103.5 -60.5t120 -25.5v540q-78 16 -144.5 41t-115.5 62t-78 87t-29 120q0 135 99.5 222t267.5 97v160h71v-160q88 -6 156 -35.5t114 -77t69.5 -109.5t23.5 -132h-76q0 63 -22.5 114.5t-60.5 87t-90 56t-114 25.5v-496 q104 -23 171 -47.5t112 -54.5q115 -82 115 -230q0 -78 -30 -138.5t-82 -103.5t-126 -68.5t-160 -29.5v-151h-71v151q-90 4 -164 35t-126 82t-81 119.5t-27 148.5zM168 1012q0 -86 66.5 -140.5t224.5 -93.5v482q-59 -4 -111.5 -21.5t-92.5 -48.5t-63.5 -76t-23.5 -102z M530 162q66 4 124.5 22.5t102.5 52t69.5 81.5t25.5 114q0 51 -16.5 90t-54.5 69t-99 52.5t-152 42.5v-524z" />
<glyph unicode="%" horiz-adv-x="1570" d="M55 1077q0 66 24.5 123t66.5 100t99.5 68t123.5 25q63 0 120.5 -25t100.5 -68t68.5 -100t25.5 -123t-25.5 -123t-68.5 -99t-100.5 -66.5t-120.5 -24.5q-66 0 -123.5 24.5t-99.5 66.5t-66.5 99.5t-24.5 122.5zM131 1077q0 -49 18.5 -93t51 -77t76 -51t92.5 -18t92 18 t75.5 51t51 77t18.5 93t-18.5 93t-51 77t-75.5 52.5t-92 19.5t-92.5 -19.5t-76 -52.5t-51 -77t-18.5 -93zM352 0l778 1421h89l-781 -1421h-86zM889 344q0 66 24.5 123t67.5 100t99 67.5t122 24.5t123 -24.5t100 -67.5t68 -100t25 -123t-25 -123t-68 -99t-100 -66.5 t-123 -24.5t-122 24.5t-99 66.5t-67.5 99.5t-24.5 122.5zM965 344q0 -49 18 -93t51 -77t76 -51.5t92 -18.5t93 18.5t77 51.5t51.5 77t18.5 93t-18.5 93t-51.5 77t-77 51.5t-93 18.5t-92 -18.5t-76 -51.5t-51 -77t-18 -93z" />
<glyph unicode="&#x26;" horiz-adv-x="1269" d="M66 381q0 82 26.5 148.5t75.5 123t116.5 104.5t147.5 93l-65 78q-109 125 -109 243q0 61 23.5 113.5t63.5 91.5t95.5 60.5t118.5 21.5q61 0 114.5 -21.5t92.5 -59.5t61.5 -90t22.5 -113q0 -100 -80 -181.5t-227 -163.5l418 -499q41 100 40 221v117h76v-117 q0 -82 -16.5 -153.5t-44.5 -133.5l221 -264h-94l-166 197q-70 -104 -182.5 -164t-255.5 -60q-96 0 -182.5 32t-151 87t-102 130t-37.5 159zM147 385q0 -70 31 -131t84 -107.5t124 -74t153 -27.5q135 0 232 57.5t155 155.5l-449 537q-94 -53 -157.5 -101.5t-101.5 -97.5 t-54.5 -101.5t-16.5 -109.5zM336 1171q0 -45 21.5 -97t62.5 -99l76 -90q78 43 131 81t84.5 72.5t45 67.5t13.5 68q0 45 -15.5 83.5t-44 68.5t-67.5 46.5t-84 16.5q-49 0 -90 -16.5t-70.5 -46.5t-46 -69.5t-16.5 -85.5z" />
<glyph unicode="'" horiz-adv-x="284" d="M106 1055v366h76v-366h-76z" />
<glyph unicode="(" horiz-adv-x="450" d="M88 666q0 262 81 498.5t228 428.5h84q-145 -190 -227 -427.5t-82 -499.5q0 -264 82 -501t227 -427h-84q-147 193 -228 429t-81 499z" />
<glyph unicode=")" horiz-adv-x="450" d="M-29 -262q145 190 227.5 426.5t82.5 501.5q0 262 -82 499.5t-228 427.5h82q147 -193 228 -429t81 -498t-80.5 -499t-228.5 -429h-82z" />
<glyph unicode="*" horiz-adv-x="681" d="M45 1112v68l242 -2l-123 208l59 33l119 -209l119 209l59 -33l-123 -208l242 4v-70l-242 2l123 -207l-59 -35l-119 209l-119 -209l-59 35l123 207z" />
<glyph unicode="+" horiz-adv-x="962" d="M72 528v74h372v373h76v-373h373v-74h-373v-374h-76v374h-372z" />
<glyph unicode="," horiz-adv-x="319" d="M37 -135q41 2 64.5 28.5t23.5 71.5v225h74v-225q0 -43 -14.5 -74.5t-37 -53t-51 -32t-59.5 -10.5v70z" />
<glyph unicode="-" horiz-adv-x="616" d="M88 528v76h440v-76h-440z" />
<glyph unicode="." horiz-adv-x="319" d="M123 0v190h76v-190h-76z" />
<glyph unicode="/" horiz-adv-x="548" d="M20 0l433 1524h77l-430 -1524h-80z" />
<glyph unicode="0" horiz-adv-x="1126" d="M70 700q0 201 44 340.5t114.5 225.5t158.5 123.5t178 37.5q88 0 177 -37.5t159 -123.5t114 -225.5t44 -340.5t-44 -339t-114 -224t-159 -125t-177 -39q-90 0 -178 39t-158.5 125t-114.5 224.5t-44 338.5zM145 700q0 -154 29 -274.5t82 -204.5t132 -129t177 -45t176 45 t131.5 129t82 205t28.5 274q0 154 -28.5 276t-82 206t-131 129t-176.5 45q-98 0 -177 -45t-132 -129t-82 -206t-29 -276z" />
<glyph unicode="1" horiz-adv-x="649" d="M111 1208v62q98 4 154.5 37.5t64.5 113.5h65v-1421h-76v1208h-208z" />
<glyph unicode="2" horiz-adv-x="1083" d="M82 0v39q0 115 35 200t95 150.5t141 117.5t173 101q111 59 188 109.5t124 99.5t68.5 103.5t21.5 126.5q0 53 -18.5 107t-61.5 99t-111.5 73t-167.5 28q-88 0 -158.5 -29t-120.5 -81t-78 -124.5t-28 -161.5h-75q0 94 29.5 179.5t88 150t144.5 102t198 37.5 q113 0 195 -32.5t135 -86t79 -122t26 -139.5q0 -86 -27 -152t-81 -124t-137 -113.5t-198 -116.5q-94 -51 -166.5 -100.5t-123 -103.5t-78 -117.5t-33.5 -143.5h844v-76h-922z" />
<glyph unicode="3" horiz-adv-x="1105" d="M66 414h75q2 -74 23.5 -139.5t69 -117t123 -81t186.5 -29.5q104 0 181 29.5t127 78t73.5 110t23.5 124.5q0 143 -84 223q-53 49 -129 72t-162 23h-120v73h96q98 0 164.5 28t103.5 62q76 70 76 201q0 133 -90 209t-250 76q-74 0 -140.5 -21.5t-115.5 -64.5t-79 -107.5 t-30 -150.5h-75q0 82 27.5 156.5t83 132t137 92t192.5 34.5q115 0 194.5 -31.5t129 -81.5t71 -114.5t21.5 -128.5q0 -123 -60.5 -205t-160.5 -116q150 -41 213 -139.5t63 -221.5q0 -74 -28.5 -148.5t-88 -133t-150.5 -95.5t-214 -37q-225 0 -348 115t-129 324z" />
<glyph unicode="4" horiz-adv-x="1095" d="M57 365v75l701 981h78v-981h198v-75h-198v-365h-78v365h-701zM150 440h608v854z" />
<glyph unicode="5" horiz-adv-x="1062" d="M63 371h78q6 -70 36 -129.5t80 -102.5t118.5 -66.5t152.5 -23.5q86 0 159 30t125 82t81 124.5t29 158.5t-28 159t-77 125t-118.5 81t-153.5 29q-106 0 -199.5 -50.5t-155.5 -142.5l-69 27l96 749h711v-75h-643l-74 -576q61 66 151.5 103.5t182.5 37.5q98 0 181 -34.5 t143.5 -97t94 -149t33.5 -186.5q0 -102 -34.5 -188t-97 -148.5t-148.5 -97.5t-189 -35q-100 0 -182 30t-142.5 82t-97 125t-43.5 159z" />
<glyph unicode="6" horiz-adv-x="1071" d="M80 625q0 383 132 592.5t376 209.5q166 0 273.5 -92t137.5 -254h-75q-29 129 -115 201t-221 72q-102 0 -182 -49.5t-136.5 -143.5t-86 -232t-29.5 -315q25 66 68.5 120t100 94t122 62.5t135.5 22.5q98 0 180 -34.5t141.5 -96t92 -148t32.5 -190.5t-34 -190t-93 -147.5 t-143 -96.5t-185 -35q-92 0 -180 35t-157.5 112t-111.5 200.5t-42 302.5zM188 426q0 -72 28 -139.5t78 -120.5t120.5 -85t156.5 -32q84 0 154 28.5t120 81t77.5 125t27.5 160.5t-26.5 161t-75.5 125t-117.5 81t-150.5 29q-84 0 -155 -32t-124 -87t-83 -131t-30 -164z" />
<glyph unicode="7" horiz-adv-x="1071" d="M63 1346v75h951v-84q-129 -111 -236.5 -257t-187.5 -318t-130 -364.5t-69 -397.5h-78q20 229 79 443t155 405q35 70 79 140.5t92 136t99 122t103 99.5h-857z" />
<glyph unicode="8" horiz-adv-x="1083" d="M68 387q0 139 80.5 237.5t218.5 139.5q-106 39 -172 120t-66 191q0 76 30.5 141.5t86 111.5t132.5 72.5t167 26.5t165.5 -26.5t131 -72.5t86 -111.5t30.5 -141.5q0 -111 -64.5 -191.5t-172.5 -119.5q137 -41 218 -139.5t81 -237.5q0 -90 -36 -166t-99.5 -131t-150.5 -86 t-189 -31q-104 0 -191.5 31t-151 86t-99 131t-35.5 166zM143 387q0 -74 30 -136.5t84 -106.5t128 -69.5t160 -25.5t159.5 25.5t127 69.5t83 106.5t29.5 136.5t-29.5 136.5t-82 107.5t-126 69.5t-161.5 24.5q-90 0 -164 -24.5t-126 -69.5t-82 -107.5t-30 -136.5zM205 1075 q0 -59 25.5 -110.5t70.5 -88t107.5 -57t136.5 -20.5t135 20.5t106 57t71 88t26 110.5q0 61 -26 112.5t-71 88.5t-106.5 57.5t-134.5 20.5q-74 0 -136.5 -20.5t-107.5 -57.5t-70.5 -88t-25.5 -113z" />
<glyph unicode="9" horiz-adv-x="1085" d="M66 958q0 104 33.5 190.5t93 148t143.5 96t184 34.5q88 0 176 -32.5t158 -110.5t113 -209t43 -330q0 -240 -45 -389t-117 -234t-159 -116t-171 -31q-170 0 -284.5 86t-141.5 254h78q23 -129 115 -197.5t233 -68.5q127 0 209 63.5t128 168t63.5 237.5t15.5 273 q-18 -61 -53 -117t-86.5 -96.5t-119 -64.5t-147.5 -24q-100 0 -185 35t-146.5 97.5t-96 148.5t-34.5 188zM141 958q0 -86 29 -158.5t80 -124.5t121.5 -82t156.5 -30q88 0 158 34t116 90t70.5 128t24.5 146q0 80 -26.5 151.5t-76 124.5t-119 85t-155.5 32q-84 0 -153.5 -29 t-119.5 -81t-78 -124.5t-28 -161.5z" />
<glyph unicode=":" horiz-adv-x="321" d="M125 0v190h76v-190h-76zM125 793v188h76v-188h-76z" />
<glyph unicode=";" horiz-adv-x="321" d="M37 -135q41 2 64.5 28.5t23.5 71.5v225h74v-225q0 -43 -14.5 -74.5t-37 -53t-51 -32t-59.5 -10.5v70zM125 793v188h76v-188h-76z" />
<glyph unicode="&#x3c;" horiz-adv-x="962" d="M82 522v84l795 361v-82l-707 -318v-4l707 -317v-82z" />
<glyph unicode="=" horiz-adv-x="919" d="M90 362v74h744v-74h-744zM90 694v74h744v-74h-744z" />
<glyph unicode="&#x3e;" horiz-adv-x="962" d="M90 164v82l707 317v4l-707 318v82l795 -361v-84z" />
<glyph unicode="?" horiz-adv-x="995" d="M51 1055q12 186 131 293.5t318 107.5q98 0 179 -27.5t137 -78t87 -121t31 -156.5q0 -72 -19.5 -123t-50 -90t-70.5 -69.5t-81 -61.5t-78 -62.5t-65.5 -72.5t-46 -92t-17.5 -119v-16h-76v16q0 82 21.5 142.5t55.5 106.5t76 82t85 66q37 29 71.5 57.5t60 62.5t41 76 t15.5 99q0 141 -95 226t-261 85t-263.5 -89t-107.5 -242h-78zM430 0v190h76v-190h-76z" />
<glyph unicode="@" horiz-adv-x="1517" d="M74 713q0 154 57 289t155.5 236t230.5 159.5t284 58.5q119 0 237.5 -38t214 -115.5t153.5 -197.5t58 -284q0 -109 -32.5 -210t-88 -179t-126 -125t-146.5 -47t-119 47t-37 133q-57 -72 -131.5 -112.5t-162.5 -40.5q-80 0 -137.5 37.5t-91.5 101t-40 142.5t17 163 q25 90 72.5 166t110 131t135.5 86t149 31q90 0 152.5 -46t82.5 -132l45 143h78q-6 -23 -18.5 -59.5t-26.5 -84.5t-30.5 -101.5t-33.5 -104.5q-37 -123 -81 -264q-27 -84 -5.5 -126t74.5 -42q59 0 116.5 43t101.5 112.5t71 157.5t27 180q0 143 -52.5 251t-136.5 177.5 t-188.5 104.5t-210.5 35q-135 0 -254 -54.5t-207 -146.5t-139 -215t-51 -260t50 -258t138 -212t206 -144.5t251 -53.5q170 0 307 68.5t229 193.5h92q-104 -160 -264 -247t-364 -87q-150 0 -281 58.5t-229.5 159t-154.5 234.5t-56 288zM427 577.5q5 -63.5 29.5 -112.5 t67.5 -78t99 -29q123 0 220 96.5t150 264.5q18 55 24.5 116.5t-8 115t-54.5 88t-115 34.5q-61 0 -123 -25.5t-115 -72.5t-95 -114.5t-65 -149.5q-20 -70 -15 -133.5z" />
<glyph unicode="A" horiz-adv-x="1193" d="M10 0l545 1421h84l545 -1421h-82l-189 489h-632l-189 -489h-82zM309 565h576l-289 752z" />
<glyph unicode="B" horiz-adv-x="1282" d="M172 0v1421h604q180 0 281.5 -95t101.5 -261q0 -113 -54 -193.5t-147 -121.5q117 -41 179.5 -131.5t62.5 -225.5q0 -86 -29.5 -158.5t-84 -125t-130 -81t-168.5 -28.5h-616zM248 76h540q63 0 124 18.5t108 57t75.5 99t28.5 142.5q0 150 -89 233t-253 83h-534v-633z M248 782h534q55 0 109.5 16.5t97.5 51.5t68.5 88t25.5 127q0 135 -79.5 208t-227.5 73h-528v-564z" />
<glyph unicode="C" horiz-adv-x="1492" d="M66 717q0 154 55 288t150.5 234t223.5 158.5t273 58.5q115 0 218.5 -35t188.5 -97t149.5 -149.5t100.5 -191.5h-82q-35 88 -92 162t-132 126t-164 80.5t-187 28.5q-129 0 -243.5 -52t-199.5 -142t-134.5 -211t-49.5 -258q0 -139 49.5 -260t134.5 -211t199.5 -142.5 t243.5 -52.5q96 0 184 30t162 82t132.5 125.5t94.5 162.5h82q-39 -104 -104.5 -191.5t-150.5 -151t-187 -98.5t-213 -35q-145 0 -273 58.5t-223.5 159t-150.5 235.5t-55 289z" />
<glyph unicode="D" horiz-adv-x="1378" d="M172 0v1421h512q150 0 266.5 -48t198.5 -139t125 -223t43 -298q0 -164 -44 -296t-126 -224.5t-199 -142.5t-264 -50h-512zM248 76h436q131 0 234.5 44t175 126t109.5 199.5t38 267.5q0 305 -144.5 469t-412.5 164h-436v-1270z" />
<glyph unicode="E" horiz-adv-x="1224" d="M172 0v1421h942v-75h-866v-564h776v-73h-776v-633h866v-76h-942z" />
<glyph unicode="F" horiz-adv-x="1153" d="M172 0v1421h905v-75h-829v-564h741v-73h-741v-709h-76z" />
<glyph unicode="G" horiz-adv-x="1556" d="M66 717q0 154 55 288t150.5 234t223.5 158.5t273 58.5q119 0 222.5 -32.5t188.5 -93t148.5 -148.5t99.5 -199h-81q-72 186 -222.5 291.5t-355.5 105.5q-129 0 -243.5 -52t-199.5 -142t-134.5 -211t-49.5 -258q0 -139 49.5 -260t134.5 -211t199.5 -142.5t243.5 -52.5 q125 0 232.5 44t187.5 124t129 190.5t61 243.5h-596v76h674v-729h-76v387q-78 -193 -236.5 -302.5t-375.5 -109.5q-145 0 -273 58.5t-223.5 159t-150.5 235.5t-55 289z" />
<glyph unicode="H" horiz-adv-x="1445" d="M172 0v1421h76v-637h954v637h76v-1421h-76v707h-954v-707h-76z" />
<glyph unicode="I" horiz-adv-x="428" d="M178 0v1421h76v-1421h-76z" />
<glyph unicode="J" horiz-adv-x="1062" d="M41 401h76q0 -74 26.5 -138t73.5 -111.5t110.5 -74t139.5 -26.5q164 0 258 98.5t94 270.5v1001h76v-1001q0 -102 -30.5 -184t-86 -140.5t-134.5 -90.5t-177 -32q-90 0 -168 33t-135.5 91.5t-90 136t-32.5 167.5z" />
<glyph unicode="K" horiz-adv-x="1200" d="M166 0v1421h76v-790l778 790h106l-540 -547l628 -874h-94l-588 819l-290 -293v-526h-76z" />
<glyph unicode="L" horiz-adv-x="1116" d="M172 0v1421h76v-1345h817v-76h-893z" />
<glyph unicode="M" horiz-adv-x="1667" d="M172 0v1421h80l584 -1329l583 1329h82v-1421h-78v1243l-544 -1243h-84l-547 1243v-1243h-76z" />
<glyph unicode="N" horiz-adv-x="1449" d="M172 0v1421h86l950 -1306v1306h76v-1421h-86l-950 1307v-1307h-76z" />
<glyph unicode="O" d="M66 717q0 154 55 288t150.5 234t223.5 158.5t273 58.5q147 0 276.5 -57.5t223.5 -156.5t148 -234.5t54 -290.5q0 -154 -55 -289t-150.5 -235.5t-223.5 -159t-273 -58.5t-273 58.5t-223.5 159t-150.5 235.5t-55 289zM141 717q0 -139 49.5 -260t134.5 -211t199.5 -142.5 t243.5 -52.5t243.5 52.5t198.5 143.5t133.5 212t49.5 258q0 139 -48.5 261t-133.5 211t-198.5 140t-244.5 51q-129 0 -243.5 -52t-199.5 -142t-134.5 -211t-49.5 -258z" />
<glyph unicode="P" horiz-adv-x="1210" d="M172 0v1421h567q197 0 309.5 -105.5t112.5 -287.5q0 -88 -30.5 -160.5t-85 -125t-131 -81t-169.5 -28.5h-497v-633h-76zM248 709h497q63 0 125 19.5t109 58t76.5 99t29.5 142.5q0 152 -90 235t-256 83h-491v-637z" />
<glyph unicode="Q" d="M66 717q0 154 55 288t150.5 234t223.5 158.5t273 58.5q147 0 276.5 -57.5t223.5 -156.5t148 -234.5t54 -290.5q0 -166 -63.5 -309.5t-173.5 -245.5l168 -162h-111l-114 113q-86 -66 -189.5 -102t-218.5 -36q-145 0 -273 58.5t-223.5 159t-150.5 235.5t-55 289zM141 717 q0 -139 49.5 -260t134.5 -211t199.5 -142.5t243.5 -52.5q98 0 187 31t165 84l-170 164h111l117 -115q100 92 158.5 222t58.5 280q0 139 -48.5 261t-133.5 211t-199.5 140t-245.5 51q-129 0 -243.5 -52t-199.5 -142t-134.5 -211t-49.5 -258z" />
<glyph unicode="R" horiz-adv-x="1288" d="M172 0v1421h598q199 0 311.5 -105.5t112.5 -287.5q0 -129 -63.5 -221t-174.5 -135q94 -35 144.5 -114t50.5 -198v-188q0 -41 9 -91t22 -81h-78q-14 29 -21.5 66.5t-7.5 87.5v206q0 84 -27.5 137.5t-71.5 84t-97.5 42t-104.5 11.5h-526v-635h-76zM248 709h530 q63 0 124 19.5t108 58t76.5 99t29.5 142.5q0 152 -90 235t-256 83h-522v-637z" />
<glyph unicode="S" horiz-adv-x="1220" d="M88 432h76q0 -98 38 -170t99 -119t140 -69.5t161 -22.5q209 0 330 88t121 242q0 66 -22.5 115t-75 87t-136.5 67.5t-209 54.5q-94 18 -181 44.5t-154.5 69.5t-107.5 105.5t-40 154.5q0 86 35 156t97.5 119t151 76.5t197.5 27.5q123 0 213 -36t148.5 -95t87 -135 t28.5 -154h-75q0 78 -29 142.5t-81 109.5t-126 69.5t-166 24.5t-166.5 -22.5t-128 -62t-82 -96t-28.5 -124.5q0 -117 97 -186.5t325 -114.5q119 -25 213 -55.5t158.5 -75.5t98 -109.5t33.5 -156.5t-36.5 -168t-106.5 -129t-167 -82t-216 -29q-92 0 -184 28t-166 84t-119 143 t-45 204z" />
<glyph unicode="T" horiz-adv-x="1056" d="M14 1346v75h1033v-75h-480v-1346h-75v1346h-478z" />
<glyph unicode="U" horiz-adv-x="1384" d="M150 508v913h75v-913q0 -102 34 -186t96.5 -144.5t148.5 -93.5t190 -33t191.5 33t149 93.5t95 144.5t33.5 186v913h76v-913q0 -117 -40 -215t-111.5 -169t-172 -111t-221.5 -40t-220 40t-172 111t-112.5 169t-39.5 215z" />
<glyph unicode="V" horiz-adv-x="1140" d="M6 1421h82l483 -1312l482 1312h82l-523 -1421h-82z" />
<glyph unicode="W" horiz-adv-x="1730" d="M18 1421h80l365 -1286l364 1286h82l365 -1286l364 1286h78l-403 -1421h-80l-365 1288l-364 -1288h-80z" />
<glyph unicode="X" horiz-adv-x="1097" d="M14 0l490 723l-473 698h92l428 -630l428 630h92l-475 -698l491 -723h-92l-444 655l-445 -655h-92z" />
<glyph unicode="Y" horiz-adv-x="1118" d="M12 1421h90l457 -725l457 725h90l-508 -807v-614h-76v614z" />
<glyph unicode="Z" horiz-adv-x="1118" d="M27 0v76l979 1270h-955v75h1051v-78l-979 -1267h979v-76h-1075z" />
<glyph unicode="[" horiz-adv-x="538" d="M150 -98v1618h337v-74h-262v-1471h262v-73h-337z" />
<glyph unicode="\" horiz-adv-x="550" d="M23 1524h79l430 -1524h-77z" />
<glyph unicode="]" horiz-adv-x="538" d="M57 -25h260v1471h-260v74h336v-1618h-336v73z" />
<glyph unicode="^" horiz-adv-x="1112" d="M66 528l450 893h84l451 -893h-84l-408 809l-409 -809h-84z" />
<glyph unicode="_" horiz-adv-x="1611" d="M-23 -141h1661v-74h-1661v74z" />
<glyph unicode="`" horiz-adv-x="808" d="M221 1423h96l172 -209h-83z" />
<glyph unicode="a" horiz-adv-x="1120" d="M63 276q0 90 38 147.5t101.5 92.5t144.5 51.5t165 24.5q88 8 159.5 18.5t123 29.5t79 49t27.5 79q0 74 -31.5 120t-81 72.5t-110 37t-117.5 10.5q-145 0 -237.5 -57.5t-126.5 -166.5h-78q35 141 148.5 219t293.5 78q199 0 307.5 -81.5t108.5 -231.5v-596q0 -41 9 -91 t22 -81h-78q-14 29 -21.5 66.5t-7.5 87.5v20q-63 -90 -180 -141t-275 -51q-70 0 -138 17t-122.5 54t-88.5 92.5t-34 130.5zM145 279q0 -66 33 -109t79 -67.5t98.5 -35t90.5 -10.5q86 0 167 19.5t145.5 59.5t103.5 101.5t39 145.5v242q-31 -29 -74 -46.5t-93 -28.5 t-104.5 -17.5t-109.5 -10.5q-203 -20 -289 -77.5t-86 -165.5z" />
<glyph unicode="b" horiz-adv-x="1257" d="M150 0v1524h75v-725q66 127 184.5 204.5t266.5 77.5q109 0 205 -44t167.5 -119.5t113.5 -177t42 -216.5t-42 -214t-113.5 -174t-168 -118t-204.5 -43q-147 0 -266 77t-185 202v-254h-75zM225 524q0 -98 36 -184t97.5 -150.5t143.5 -101.5t174 -37q94 0 176 37 t143.5 101.5t96 150.5t34.5 184t-34.5 186.5t-96 153t-143.5 102.5t-176 38q-92 0 -174 -38t-143.5 -102.5t-97.5 -152.5t-36 -187z" />
<glyph unicode="c" horiz-adv-x="1150" d="M57 524q0 115 41 216.5t113 177t168 119.5t205 44q88 0 164.5 -25.5t139 -71.5t109.5 -110.5t74 -144.5h-82q-51 127 -157.5 201t-247.5 74q-92 0 -174 -38t-143.5 -102.5t-97.5 -152.5t-36 -187q0 -98 36 -184t97.5 -150.5t143.5 -101.5t174 -37q147 0 253.5 74 t153.5 203h80q-53 -160 -182 -256.5t-305 -96.5q-109 0 -205 43t-168 118t-113 174.5t-41 213.5z" />
<glyph unicode="d" horiz-adv-x="1255" d="M57 524q0 115 41 216.5t113 177t168 119.5t205 44q147 0 266 -78.5t184 -203.5v725h76v-1524h-76v254q-66 -125 -184.5 -202t-265.5 -77q-109 0 -205 43t-168 118t-113 174.5t-41 213.5zM133 524q0 -98 36 -184t97.5 -150.5t143.5 -101.5t174 -37t174 37t143.5 101.5 t97 150.5t35.5 184t-35.5 186.5t-97 153t-143.5 102.5t-174 38t-174 -38t-143.5 -102.5t-97.5 -152.5t-36 -187z" />
<glyph unicode="e" horiz-adv-x="1163" d="M57 524q0 115 41 216.5t113 177t168 119.5t205 44q119 0 216 -49t166.5 -128t107.5 -177q36 -93 36 -189v-10h-977q0 -102 37 -190t99.5 -151.5t146.5 -99.5t180 -36q92 0 160.5 23.5t118 62.5t82 88t51.5 103h79q-55 -172 -180 -262.5t-311 -90.5q-113 0 -211 43 t-171 117t-115 174.5t-42 214.5zM141 604h887q-14 86 -54 159t-99.5 126t-134 84t-156.5 31q-84 0 -159 -31t-133.5 -84t-98 -126t-52.5 -159z" />
<glyph unicode="f" horiz-adv-x="530" d="M20 979v76h144v73q0 88 24.5 159t70.5 118t113 71q49 17 110 17q20 0 42 -2v-70q-13 1 -26 1q-130 0 -190 -76q-66 -82 -66 -224v-67h282v-76h-282v-979h-78v979h-144z" />
<glyph unicode="g" horiz-adv-x="1253" d="M68 524q0 115 41 216.5t112.5 177t167.5 119.5t205 44q152 0 268.5 -74.5t179.5 -199.5v248h76v-1026q0 -123 -38 -223.5t-105.5 -172t-163.5 -110.5t-213 -39q-186 0 -315 91t-177 255h80q45 -129 151.5 -199.5t260.5 -70.5q100 0 183 32.5t140.5 94t89 148.5t31.5 194 v217q-63 -123 -180 -198t-268 -75q-109 0 -205 43t-167.5 119t-112.5 175.5t-41 213.5zM143 524q0 -98 35 -184t96.5 -150.5t143.5 -101.5t176 -37q98 0 180 35t141.5 98.5t93 150.5t33.5 189q0 104 -33.5 192.5t-93 152t-141.5 99.5t-180 36q-94 0 -176 -38t-143.5 -102.5 t-96.5 -152.5t-35 -187z" />
<glyph unicode="h" horiz-adv-x="1173" d="M150 0v1524h75v-647q57 94 155.5 149t225.5 55q205 0 317.5 -118.5t112.5 -325.5v-637h-75v637q0 174 -91.5 272.5t-265.5 98.5q-80 0 -149.5 -28t-119.5 -78t-80 -117.5t-30 -147.5v-637h-75z" />
<glyph unicode="i" horiz-adv-x="391" d="M160 0v1055h76v-1055h-76zM160 1233v188h76v-188h-76z" />
<glyph unicode="j" horiz-adv-x="372" d="M-49 -393q16 -1 31 -1q33 0 58 6q36 9 60 32q49 45 50 153v1258h75v-1258q0 -141 -73 -209q-61 -58 -158 -58q-21 0 -43 3v74zM150 1233v188h75v-188h-75z" />
<glyph unicode="k" horiz-adv-x="1024" d="M150 0v1524h75v-1067l619 598h108l-399 -385l451 -670h-93l-413 614l-273 -262v-352h-75z" />
<glyph unicode="l" horiz-adv-x="391" d="M160 0v1524h76v-1524h-76z" />
<glyph unicode="m" horiz-adv-x="1812" d="M150 0v1055h75v-144q49 78 132 124t192 46q129 0 226 -63.5t143 -169.5q41 106 134 169.5t222 63.5q88 0 161.5 -29.5t127 -84t83 -128t29.5 -159.5v-680h-76v680q0 70 -24.5 129t-67.5 102t-103.5 68t-129.5 25q-70 0 -129.5 -25t-102.5 -68t-67.5 -102t-24.5 -129v-680 h-76v680q0 70 -24.5 129t-67.5 102t-103.5 68t-129.5 25q-70 0 -129.5 -25t-102.5 -68t-67.5 -102t-24.5 -129v-680h-75z" />
<glyph unicode="n" horiz-adv-x="1173" d="M150 0v1055h75v-178q57 94 155.5 149t225.5 55q205 0 317.5 -118.5t112.5 -325.5v-637h-75v637q0 174 -91.5 272.5t-265.5 98.5q-80 0 -149.5 -28t-119.5 -78t-80 -117.5t-30 -147.5v-637h-75z" />
<glyph unicode="o" horiz-adv-x="1165" d="M57 524q0 115 42 216.5t114 177t167 119.5t204 44t205 -44t167.5 -119.5t113.5 -177t42 -216.5t-42 -214t-113.5 -174t-168 -118t-204.5 -43q-109 0 -204 43t-167 118t-114 174.5t-42 213.5zM133 524q0 -98 36 -185t97.5 -151.5t143.5 -102.5t174 -38q94 0 176 38 t143.5 102.5t96 151.5t34.5 185q0 100 -34.5 188.5t-96 155t-143.5 104.5t-176 38q-92 0 -174 -38t-143.5 -104.5t-97.5 -154.5t-36 -189z" />
<glyph unicode="p" horiz-adv-x="1247" d="M139 -469v1524h76v-256q66 127 184.5 204.5t266.5 77.5q109 0 205 -44t167.5 -119.5t113.5 -177t42 -216.5t-42 -214t-113.5 -174t-168 -118t-204.5 -43q-147 0 -266 77t-185 202v-723h-76zM215 524q0 -98 36 -184t97.5 -150.5t143 -101.5t174.5 -37q94 0 176 37 t143.5 101.5t96 150.5t34.5 184t-34.5 186.5t-96 153t-143.5 102.5t-176 38q-92 0 -174 -38t-143.5 -102.5t-97.5 -152.5t-36 -187z" />
<glyph unicode="q" horiz-adv-x="1245" d="M57 524q0 115 41 216.5t113 177t168 119.5t205 44q147 0 266 -78.5t184 -203.5v256h76v-1524h-76v723q-66 -125 -184.5 -202t-265.5 -77q-109 0 -205 43t-168 118t-113 174.5t-41 213.5zM135 524q0 -98 35 -184t96.5 -150.5t143.5 -101.5t174 -37t174 37t143.5 101.5 t97 150.5t35.5 184t-35.5 186.5t-97 153t-143.5 102.5t-174 38t-174 -38t-143.5 -102.5t-96.5 -152.5t-35 -187z" />
<glyph unicode="r" horiz-adv-x="671" d="M150 0v1055h77v-176q14 27 30.5 50t39.5 44q70 61 160 89q61 19 131 19q32 0 67 -4v-69q-28 3 -55 3h-7q-67 0 -121 -19q-79 -26 -128 -74q-57 -51 -87 -124t-30 -157v-637h-77z" />
<glyph unicode="s" horiz-adv-x="1046" d="M68 307h75q29 -129 136.5 -194.5t275.5 -65.5q96 0 172 28.5t123 76.5q52 55 52 129q0 8 -1 16q-4 96 -89 149.5t-277 81.5q-68 10 -140.5 23.5t-132 41.5t-98.5 76t-41 126q0 53 25.5 105t75.5 92t125 64.5t173 24.5q176 0 287 -75.5t145 -219.5h-77q-33 106 -122 165 t-231 59q-72 0 -131 -16.5t-102 -45t-66.5 -68.5t-23.5 -85q2 -90 86 -129t260 -64q82 -12 158.5 -31.5t136 -53.5t96.5 -86t41 -132q0 -5 1 -11q0 -48 -18 -96q-18 -52 -57 -94q-57 -59 -147 -91t-201 -32q-201 0 -332 85t-157 247z" />
<glyph unicode="t" horiz-adv-x="571" d="M20 979v76h144v225h76v-225h284v-76h-284v-614q0 -68 16 -123.5t51 -95.5t89 -60q45 -17 104 -17q12 0 24 1v-70q-22 -2 -42 -2q-60 0 -110 18q-66 24 -112.5 71.5t-71 118t-24.5 159.5v614h-144z" />
<glyph unicode="u" horiz-adv-x="1173" d="M141 418v637h76v-637q0 -80 27.5 -147.5t77 -116t116 -76t146.5 -27.5t147.5 27.5t116.5 76t76.5 116t27.5 147.5v637h76v-1055h-76v174q-53 -92 -148 -145.5t-220 -53.5q-96 0 -177 33t-140.5 92.5t-92.5 140.5t-33 177z" />
<glyph unicode="v" horiz-adv-x="917" d="M12 1055h82l365 -951l364 951h82l-405 -1055h-82z" />
<glyph unicode="w" horiz-adv-x="1421" d="M27 1055h79l283 -930l283 930h82l282 -930l283 930h80l-322 -1055h-82l-282 930l-283 -930h-82z" />
<glyph unicode="x" horiz-adv-x="884" d="M2 0l395 545l-370 510h94l323 -445l324 445h94l-370 -510l395 -545h-94l-349 481l-348 -481h-94z" />
<glyph unicode="y" horiz-adv-x="911" d="M20 1055h82l355 -946l358 946h80l-455 -1209q-57 -152 -162 -210q-72 -40 -161 -40q-41 0 -86 9v71q36 -5 69 -5q79 0 138 30q84 43 131 172l49 129z" />
<glyph unicode="z" horiz-adv-x="894" d="M20 0v76l742 903h-719v76h817v-76l-741 -903h764v-76h-863z" />
<glyph unicode="{" horiz-adv-x="520" d="M74 655v70h10q141 0 141 197v356q0 117 58.5 181.5t175.5 58.5v-62q-84 0 -121 -46t-37 -124v-356q0 -98 -29.5 -155.5t-87.5 -84.5q57 -27 87 -84t30 -155v-359q0 -78 37 -123t121 -45v-63q-117 -6 -175.5 59.5t-58.5 181.5v357q0 197 -141 196h-10z" />
<glyph unicode="|" horiz-adv-x="405" d="M168 0v1524h76v-1524h-76z" />
<glyph unicode="}" horiz-adv-x="520" d="M66 -76q86 0 121.5 45t35.5 123v359q0 98 31 155.5t84 83.5q-53 27 -84 84t-31 156v356q0 78 -35.5 124t-121.5 46v62q117 6 175 -58.5t58 -181.5v-356q0 -197 141 -197h11v-70h-11q-141 0 -141 -196v-357q0 -117 -58.5 -182t-174.5 -59v63z" />
<glyph unicode="~" horiz-adv-x="823" d="M150 1587q16 80 58 116t89 36q41 0 70.5 -13.5t56.5 -31t51.5 -30.5t54.5 -13q23 0 45.5 19.5t36.5 60.5h66q-16 -80 -58 -116t-90 -36q-39 0 -69.5 14.5t-56 30.5t-51 29.5t-56.5 11.5q-23 0 -45.5 -18.5t-36.5 -59.5h-65z" />
<glyph unicode="&#xa1;" horiz-adv-x="423" d="M176 0v1055h76v-1055h-76zM176 1233v188h76v-188h-76z" />
<glyph unicode="&#xa2;" horiz-adv-x="1032" d="M49 520q0 117 37 216.5t103.5 172t155.5 114.5t194 42q68 0 129 -18l75 233h76l-84 -258q90 -41 154.5 -118t99.5 -181h-80q-29 78 -79 136.5t-117 92.5l-287 -886q55 -16 113 -17q135 0 233 78t141 207h80q-25 -80 -67.5 -146.5t-101 -112.5t-131 -72t-154.5 -26 q-72 0 -136 19l-75 -236h-76l84 263q-66 31 -118 80t-90 113.5t-58.5 141t-20.5 162.5zM125 520q0 -145 64.5 -257.5t168.5 -170.5l287 887q-25 8 -51.5 11t-54.5 3q-88 0 -164 -36.5t-131.5 -100t-87 -149.5t-31.5 -187z" />
<glyph unicode="&#xa3;" horiz-adv-x="1085" d="M41 662v71h172q-2 6 -10 19q-37 63 -70 131.5t-33 156.5q0 72 27 140.5t80 123t136 87t196 32.5q117 0 200.5 -35.5t138 -94t81 -133.5t26.5 -150h-76q0 76 -26.5 139t-74.5 108.5t-116.5 70t-152.5 24.5q-166 0 -263.5 -85t-97.5 -227q0 -72 27.5 -131t62.5 -118 q8 -14 16.5 -27.5t16.5 -30.5h395v-71h-358q16 -43 27.5 -90.5t11.5 -102.5q0 -43 -9.5 -90t-26.5 -93t-42 -88t-57 -73q92 41 193.5 35t176.5 -41q51 -25 100.5 -39t96.5 -14t93 17t93 54l43 -63q-61 -47 -120.5 -65.5t-114.5 -16.5t-109.5 18.5t-107.5 38.5 q-109 47 -232 33t-239 -88l-43 63q109 78 169 186.5t60 225.5q0 55 -13.5 102t-33.5 91h-213z" />
<glyph unicode="&#xa4;" horiz-adv-x="1353" d="M31 487v72h157q-4 25 -6 49.5t-2 48.5q0 18 1 36t3 36h-153v74h166q25 111 81 204t136 161.5t180 107.5t211 39q162 0 294 -75t214 -204l-37 -75q-72 129 -195 206.5t-276 77.5q-96 0 -182 -33.5t-156 -93t-120 -140.5t-73 -175h924l-35 -74h-901q-6 -37 -6 -72 q0 -25 2 -49t6 -49h817l-37 -72h-763q25 -90 76 -166.5t119.5 -132t152.5 -87t176 -31.5q131 0 241.5 60t186.5 163h88q-84 -133 -219 -213t-297 -80q-109 0 -206 37t-176 101.5t-136.5 154.5t-83.5 194h-172z" />
<glyph unicode="&#xa5;" horiz-adv-x="1011" d="M0 1421h88l420 -735h2l418 735h88l-264 -463h206v-75h-249l-150 -262h369v-74h-381v-547h-76v547h-381v74h367l-150 262h-248v75h207z" />
<glyph unicode="&#xa7;" horiz-adv-x="1030" d="M74 772q0 82 41 145.5t112 98.5q-29 29 -45 67.5t-16 92.5q0 63 25.5 114t71.5 88t111.5 57.5t145.5 20.5q92 0 157.5 -26.5t108.5 -70.5t63.5 -100.5t20.5 -113.5h-75q0 109 -75 175t-200 66q-129 0 -203.5 -58t-74.5 -152q0 -47 20.5 -82t61.5 -59.5t101 -43t138 -33.5 q76 -14 147.5 -33.5t127 -52t89.5 -84t34 -129.5q0 -84 -40 -147t-110 -98q59 -59 59 -158q0 -129 -95 -206t-257 -77q-92 0 -158.5 27t-109.5 72t-63.5 100t-20.5 115h76q0 -109 74.5 -174.5t201.5 -65.5q131 0 204 55.5t73 153.5q0 43 -16.5 76t-54.5 58.5t-99.5 46 t-149.5 36.5q-74 14 -145.5 32.5t-128 51.5t-92 84t-35.5 131zM150 772q0 -45 17 -80t57 -62.5t104.5 -48t158.5 -36.5q70 -12 138.5 -30.5t124.5 -51.5q61 23 98 75.5t37 120.5q0 47 -16.5 82t-56.5 61.5t-104.5 46t-158.5 38.5q-72 14 -138.5 32.5t-119.5 49.5 q-66 -23 -103.5 -77t-37.5 -120z" />
<glyph unicode="&#xa8;" horiz-adv-x="806" d="M219 1219v141h96v-141h-96zM496 1219v141h98v-141h-98z" />
<glyph unicode="&#xa9;" horiz-adv-x="1589" d="M57 715q0 154 58.5 289t159 235t234.5 158.5t288 58.5t288 -58.5t235 -158.5t159.5 -235.5t58.5 -288.5q0 -154 -58.5 -288t-159.5 -235.5t-235.5 -160t-287.5 -58.5q-154 0 -288 58.5t-234.5 160t-159 235.5t-58.5 288zM133 715q0 -139 52.5 -260t142.5 -212t211 -143.5 t258 -52.5t258 52.5t212 143.5t143 211.5t52 260.5q0 139 -52 261t-143 213t-212 143t-258 52t-258 -52t-211 -143t-142.5 -213t-52.5 -261zM393 717q0 88 32 164.5t86 134t128 91.5t158 34q68 0 127 -20.5t109 -57.5t87 -88t58 -113h-80q-39 92 -118 148.5t-181 56.5 q-68 0 -128.5 -27.5t-105.5 -76t-70.5 -112t-25.5 -134.5q0 -74 25.5 -137.5t70.5 -111.5t105.5 -75.5t128.5 -27.5q98 0 178 56t119 148h80q-23 -61 -60 -111t-86 -87t-108.5 -57.5t-124.5 -20.5q-84 0 -158 32.5t-128 90t-86 135.5t-32 166z" />
<glyph unicode="&#xaa;" horiz-adv-x="774" d="M63 956q0 51 21.5 88t59.5 60.5t89.5 36t112.5 18.5q104 10 161.5 27.5t57.5 75.5q0 45 -44 82.5t-142 37.5q-29 0 -60.5 -5t-59.5 -19.5t-50.5 -38t-34.5 -59.5h-78q20 86 91 139t190 53q90 0 142 -23.5t80 -55.5t35 -66.5t7 -57.5v-358q0 -23 6 -53.5t15 -49.5h-76 q-16 33 -17 80q-35 -47 -99 -76.5t-161 -29.5q-45 0 -89 11t-79 36t-56.5 61.5t-21.5 85.5zM139 956q0 -37 18.5 -60.5t44 -37.5t55.5 -19t52 -5q49 0 96.5 11t83 33.5t57 57.5t21.5 82v137q-25 -29 -76 -40t-135 -19q-66 -6 -107.5 -19.5t-66 -32t-34 -41t-9.5 -47.5z" />
<glyph unicode="&#xab;" horiz-adv-x="690" d="M41 563v99l266 221v-99l-211 -172l211 -172v-98zM387 563v99l268 221v-99l-213 -172l213 -172v-98z" />
<glyph unicode="&#xac;" horiz-adv-x="319" d="M123 547v190h76v-190h-76z" />
<glyph unicode="&#xad;" horiz-adv-x="616" d="M88 528v76h440v-76h-440z" />
<glyph unicode="&#xae;" horiz-adv-x="1589" d="M57 715q0 154 58.5 289t159 235t234.5 158.5t288 58.5t288 -58.5t235 -158.5t159.5 -235t58.5 -289t-58.5 -288t-159.5 -235.5t-235.5 -160t-287.5 -58.5q-154 0 -288 58.5t-234.5 160t-159 235.5t-58.5 288zM133 715q0 -139 52.5 -260t142.5 -212t210.5 -143.5 t258.5 -52.5q137 0 258 52.5t212 143.5t143 212t52 260t-52 261t-143 213t-212 143t-258 52t-258 -52t-211 -143t-142.5 -213t-52.5 -261zM522 303v821h369q121 0 188.5 -63.5t67.5 -175.5q0 -94 -54.5 -156.5t-146.5 -79.5l197 -346h-88l-189 342h-268v-342h-76zM598 719 h297q33 0 64.5 10t56 29.5t40 51.5t15.5 75q0 55 -18.5 88t-46 50t-59.5 22.5t-56 5.5h-293v-332z" />
<glyph unicode="&#xaf;" horiz-adv-x="847" d="M143 1227v76h562v-76h-562z" />
<glyph unicode="&#xb0;" horiz-adv-x="720" d="M47 1108q0 63 24.5 120.5t67.5 100.5t100 67.5t123 24.5q63 0 121 -24.5t101 -67.5t67.5 -100.5t24.5 -120.5q0 -66 -24.5 -123t-67.5 -100t-100.5 -67.5t-121.5 -24.5q-66 0 -123 24.5t-100 67.5t-67.5 100t-24.5 123zM123 1108q0 -49 19.5 -93t51 -77t75.5 -52.5 t93 -19.5t92.5 19.5t76 52.5t51 77t18.5 93t-18.5 93t-51 76t-75.5 51.5t-93 19.5q-49 0 -93 -19.5t-75.5 -51.5t-51 -76t-19.5 -93z" />
<glyph unicode="&#xb1;" horiz-adv-x="1452" d="M20 979v76h144v73q0 88 24.5 159t70.5 118t112.5 70.5t152.5 15.5v-70q-150 8 -216 -74.5t-66 -224.5v-67h452v73q0 88 24.5 159t71 118t113 70.5t152.5 15.5v-70q-150 8 -216.5 -74.5t-66.5 -224.5v-67h283v-76h-283v-979h-78v979h-452v-979h-78v979h-144zM1221 0v1524 h75v-1524h-75z" />
<glyph unicode="&#xb2;" horiz-adv-x="759" d="M82 528v37q0 131 80 219q39 45 92 80t108 66q72 39 119 69.5t75 60.5t38 60.5t10 67.5q0 80 -52 132t-155 52q-104 0 -163.5 -67.5t-59.5 -169.5h-76q0 72 23.5 128t63.5 96t95.5 60.5t116.5 20.5q131 0 211 -76q72 -68 72 -176q0 -55 -16.5 -97t-51 -79t-87 -72 t-126.5 -74q-113 -59 -172 -118.5t-67 -147.5h508v-72h-586z" />
<glyph unicode="&#xb3;" horiz-adv-x="772" d="M66 797h77q0 -88 56.5 -153.5t177.5 -65.5q61 0 106 17t74 46t43 64.5t14 72.5q0 39 -12 73t-39.5 59.5t-74 40t-115.5 14.5h-54v75h54q100 0 153.5 45t53.5 119q0 76 -51.5 122t-145.5 46q-92 0 -151.5 -55t-59.5 -150h-76q0 57 20.5 107.5t57.5 87.5t90 57.5t119 20.5 q131 0 205 -68q68 -66 67 -168q0 -55 -28.5 -110.5t-102.5 -85.5q78 -25 122 -80.5t44 -147.5q0 -49 -18.5 -97t-57.5 -86t-98 -62.5t-139 -24.5t-138.5 23.5t-97.5 63.5t-57 91t-18 109z" />
<glyph unicode="&#xb4;" horiz-adv-x="808" d="M350 1214l172 209h99l-185 -209h-86z" />
<glyph unicode="&#xb6;" horiz-adv-x="1062" d="M70 1028q0 182 112.5 287.5t309.5 105.5h426v-1421h-76v1346h-228v-1346h-75v633h-54q-92 0 -168.5 28.5t-131 81t-85 125t-30.5 160.5z" />
<glyph unicode="&#xb7;" horiz-adv-x="319" d="M123 547v190h76v-190h-76z" />
<glyph unicode="&#xb8;" horiz-adv-x="614" d="M143 -299l23 43q31 -27 65.5 -43t75.5 -16q39 0 70 17t31 58q0 35 -25 57.5t-68 22.5q-18 0 -41.5 -7t-42.5 -23l-47 34l82 156h72l-70 -119q29 14 64 13.5t65.5 -16t52 -45.5t21.5 -73q0 -61 -44 -97t-116 -36q-41 0 -86 18.5t-82 55.5z" />
<glyph unicode="&#xb9;" horiz-adv-x="538" d="M94 1266v61q59 4 94 24.5t39 69.5h78v-893h-78v738h-133z" />
<glyph unicode="&#xba;" horiz-adv-x="772" d="M57 1104q0 72 26 135.5t71 110.5t105 74.5t128 27.5t128 -27.5t105.5 -74.5t72 -110.5t26.5 -135.5t-26.5 -134.5t-72 -109.5t-105.5 -74.5t-128 -27.5t-128 27.5t-105 74.5t-71 109.5t-26 134.5zM133 1104q0 -57 20.5 -107.5t54.5 -87.5t80 -58.5t99 -21.5t99 21.5 t81 58.5t54.5 87.5t19.5 107.5t-19.5 108.5t-54.5 89t-81 59t-99 21.5t-99 -21.5t-80 -59t-54.5 -89t-20.5 -108.5z" />
<glyph unicode="&#xbb;" horiz-adv-x="690" d="M41 342v98l211 172l-211 172v99l266 -221v-99zM387 342v98l211 172l-211 172v99l266 -221v-99z" />
<glyph unicode="&#xbc;" horiz-adv-x="1236" d="M94 1266v61q59 4 95 24.5t40 69.5h76v-893h-76v738h-135zM121 -25l835 1446h82l-835 -1446h-82zM571 215v70l437 608h75v-608h93v-70h-93v-215h-75v215h-437zM659 285h349v491z" />
<glyph unicode="&#xbd;" horiz-adv-x="1449" d="M94 1266v61q59 4 95 24.5t40 69.5h76v-893h-76v738h-135zM123 -25l835 1446h82l-835 -1446h-82zM770 0v39q0 127 80 217q39 47 93 82t110 63q72 39 118 71t73.5 60.5t37.5 59.5t10 70q0 78 -52 130t-155 52q-104 0 -163.5 -66.5t-59.5 -171.5h-76q0 72 24 128.5t63.5 96 t95 60t116.5 20.5q135 0 211 -75q74 -70 74 -174q0 -55 -16.5 -98.5t-51 -80.5t-88 -71.5t-127.5 -73.5q-111 -59 -171 -117.5t-68 -148.5h508v-72h-586z" />
<glyph unicode="&#xbe;" horiz-adv-x="1536" d="M66 797h75q0 -88 56.5 -153.5t177.5 -65.5q61 0 106 17t74 46t43 64.5t14 72.5q0 39 -12 73t-40 59.5t-74 40t-113 14.5h-56v75h56q98 0 151.5 45t53.5 119q0 76 -51.5 122t-145.5 46q-92 0 -151.5 -55t-59.5 -150h-78q0 57 20.5 107.5t58.5 87.5t91 57.5t119 20.5 q131 0 205 -68q70 -66 69 -168q0 -55 -29.5 -110.5t-103.5 -85.5q78 -25 122 -80.5t44 -147.5q0 -49 -18.5 -97t-57.5 -86t-98 -62.5t-139 -24.5t-138.5 23.5t-96.5 63.5t-56 91t-18 109zM420 -25l833 1446h82l-833 -1446h-82zM870 215v70l435 608h77v-608h93v-70h-93v-215 h-75v215h-437zM956 285h351v491z" />
<glyph unicode="&#xbf;" horiz-adv-x="995" d="M63 342q0 72 19.5 123t51.5 90t72 69.5t81 61.5q39 31 76.5 62.5t65.5 71.5t45.5 92.5t17.5 119.5v17h77v-17q0 -82 -21.5 -142.5t-55 -106.5t-76.5 -81.5t-84 -66.5q-39 -29 -74 -57.5t-60.5 -62.5t-41 -76t-15.5 -99q0 -141 95.5 -226t261.5 -85t264 89t108 240h76 q-10 -184 -130 -291.5t-318 -107.5q-98 0 -178 27.5t-137.5 78t-88.5 121t-31 156.5zM492 1225v190h77v-190h-77z" />
<glyph unicode="&#xc0;" horiz-adv-x="1193" d="M10 0l545 1421h84l545 -1421h-82l-189 489h-632l-189 -489h-82zM309 565h576l-289 752zM395 1778h99l172 -211h-86z" />
<glyph unicode="&#xc1;" horiz-adv-x="1193" d="M10 0l545 1421h84l545 -1421h-82l-189 489h-632l-189 -489h-82zM309 565h576l-289 752zM549 1567l172 211h98l-184 -211h-86z" />
<glyph unicode="&#xc2;" horiz-adv-x="1193" d="M10 0l545 1421h84l545 -1421h-82l-189 489h-632l-189 -489h-82zM309 565h576l-289 752zM365 1563l165 200h93l165 -200h-92l-121 149l-118 -149h-92z" />
<glyph unicode="&#xc3;" horiz-adv-x="1193" d="M10 0l545 1421h84l545 -1421h-82l-189 489h-632l-189 -489h-82zM309 565h576l-289 752zM324 1587q16 80 57 116t88 36q41 0 70.5 -13.5t56.5 -31t51.5 -30.5t54.5 -13q23 0 46.5 19.5t35.5 60.5h66q-16 -80 -58 -116t-90 -36q-39 0 -69.5 14.5t-56 30.5t-51 29.5 t-56.5 11.5q-23 0 -45.5 -18.5t-36.5 -59.5h-63z" />
<glyph unicode="&#xc4;" horiz-adv-x="1193" d="M10 0l545 1421h84l545 -1421h-82l-189 489h-632l-189 -489h-82zM309 565h576l-289 752zM389 1591v140h98v-140h-98zM666 1591v140h98v-140h-98z" />
<glyph unicode="&#xc5;" horiz-adv-x="1193" d="M10 0l545 1421h84l545 -1421h-82l-189 489h-632l-189 -489h-82zM309 565h576l-289 752zM408 1716q0 72 49 121t121 49q70 0 118.5 -49t48.5 -121q0 -70 -49 -119t-118 -49q-72 0 -121 49.5t-49 118.5zM467 1716q0 -47 32 -79.5t79 -32.5q45 0 76.5 32.5t31.5 79.5 t-31.5 80t-76.5 33q-47 0 -79 -33t-32 -80z" />
<glyph unicode="&#xc6;" horiz-adv-x="2007" d="M10 0l621 1421h1265v-75h-864v-562h776v-77h-776v-631h864v-76h-942v489h-647l-213 -489h-84zM340 567h614v779h-274z" />
<glyph unicode="&#xc7;" horiz-adv-x="1495" d="M66 717q0 154 55 288t150.5 234t224.5 158.5t274 58.5q113 0 216.5 -35t188.5 -97t150.5 -149.5t101.5 -191.5h-81q-35 88 -92.5 162t-132 126t-164 80.5t-187.5 28.5q-129 0 -243.5 -52t-200.5 -142t-135.5 -211t-49.5 -258q0 -139 49.5 -260t135.5 -211t200.5 -142.5 t243.5 -52.5q96 0 184 30t162 82t131.5 125.5t93.5 162.5h82q-39 -104 -103.5 -191.5t-149.5 -151t-187 -98.5t-213 -35h-16l-54 -94q29 14 64 13.5t65.5 -16t52 -45.5t21.5 -73q0 -61 -44 -97t-116 -36q-41 0 -87 18.5t-81 55.5l23 43q31 -27 65.5 -43t75.5 -16q37 0 68 17 t31 58q0 35 -23.5 57.5t-66.5 22.5q-18 0 -42 -7t-42 -23l-50 34l74 136q-131 16 -244.5 79.5t-197.5 161.5t-132 225t-48 271z" />
<glyph unicode="&#xc8;" horiz-adv-x="1224" d="M172 0v1421h942v-75h-866v-564h776v-73h-776v-633h866v-76h-942zM418 1778h98l170 -211h-84z" />
<glyph unicode="&#xc9;" horiz-adv-x="1224" d="M172 0v1421h942v-75h-866v-564h776v-73h-776v-633h866v-76h-942zM582 1567l172 211h96l-184 -211h-84z" />
<glyph unicode="&#xca;" horiz-adv-x="1224" d="M172 0v1421h942v-75h-866v-564h776v-73h-776v-633h866v-76h-942zM430 1563l164 200h92l166 -200h-92l-119 149l-119 -149h-92z" />
<glyph unicode="&#xcb;" horiz-adv-x="1224" d="M172 0v1421h942v-75h-866v-564h776v-73h-776v-633h866v-76h-942zM467 1591v140h98v-140h-98zM745 1591v140h97v-140h-97z" />
<glyph unicode="&#xcc;" horiz-adv-x="428" d="M-33 1778h99l172 -211h-84zM178 0v1421h76v-1421h-76z" />
<glyph unicode="&#xcd;" horiz-adv-x="428" d="M170 1567l172 209h98l-184 -209h-86zM178 0v1421h76v-1421h-76z" />
<glyph unicode="&#xce;" horiz-adv-x="428" d="M2 1563l166 200h92l166 -200h-92l-119 149l-121 -149h-92zM178 0v1421h76v-1421h-76z" />
<glyph unicode="&#xcf;" horiz-adv-x="428" d="M41 1589v142h96v-142h-96zM178 0v1421h76v-1421h-76zM289 1589v142h98v-142h-98z" />
<glyph unicode="&#xd0;" horiz-adv-x="1366" d="M31 743v76h127v602h512q150 0 267.5 -48t199.5 -139t125 -223t43 -298q0 -164 -44 -296t-127 -224.5t-200 -142.5t-264 -50h-512v743h-127zM233 76h437q131 0 234.5 44t175 126t109.5 199.5t38 267.5q0 305 -144.5 469t-412.5 164h-437v-527h482v-76h-482v-667z" />
<glyph unicode="&#xd1;" horiz-adv-x="1449" d="M172 0v1421h86l950 -1306v1306h76v-1421h-86l-950 1307v-1307h-76zM481 1587q16 80 58.5 116t89.5 36q41 0 70.5 -13.5t56 -31t51 -30.5t55.5 -13q23 0 45.5 19.5t36.5 60.5h66q-16 -80 -58.5 -116t-89.5 -36q-39 0 -69.5 14.5t-56 30.5t-51.5 29.5t-56 11.5 q-23 0 -45.5 -18.5t-36.5 -59.5h-66z" />
<glyph unicode="&#xd2;" d="M66 717q0 154 55 288t150.5 234t223.5 158.5t273 58.5q147 0 276.5 -57.5t223.5 -156.5t148 -234.5t54 -290.5q0 -154 -55 -289t-150.5 -235.5t-223.5 -159t-273 -58.5t-273 58.5t-223.5 159t-150.5 235.5t-55 289zM141 717q0 -139 49.5 -260t134.5 -211t199.5 -142.5 t243.5 -52.5t243.5 52.5t198.5 143.5t133.5 212t49.5 258q0 139 -48.5 261t-133.5 211t-198.5 140t-244.5 51q-129 0 -243.5 -52t-199.5 -142t-134.5 -211t-49.5 -258zM528 1778h97l172 -211h-84z" />
<glyph unicode="&#xd3;" d="M66 717q0 154 55 288t150.5 234t223.5 158.5t273 58.5q147 0 276.5 -57.5t223.5 -156.5t148 -234.5t54 -290.5q0 -154 -55 -289t-150.5 -235.5t-223.5 -159t-273 -58.5t-273 58.5t-223.5 159t-150.5 235.5t-55 289zM141 717q0 -139 49.5 -260t134.5 -211t199.5 -142.5 t243.5 -52.5t243.5 52.5t198.5 143.5t133.5 212t49.5 258q0 139 -48.5 261t-133.5 211t-198.5 140t-244.5 51q-129 0 -243.5 -52t-199.5 -142t-134.5 -211t-49.5 -258zM731 1567l172 211h96l-184 -211h-84z" />
<glyph unicode="&#xd4;" d="M66 717q0 154 55 288t150.5 234t223.5 158.5t273 58.5q147 0 276.5 -57.5t223.5 -156.5t148 -234.5t54 -290.5q0 -154 -55 -289t-150.5 -235.5t-223.5 -159t-273 -58.5t-273 58.5t-223.5 159t-150.5 235.5t-55 289zM141 717q0 -139 49.5 -260t134.5 -211t199.5 -142.5 t243.5 -52.5t243.5 52.5t198.5 143.5t133.5 212t49.5 258q0 139 -48.5 261t-133.5 211t-198.5 140t-244.5 51q-129 0 -243.5 -52t-199.5 -142t-134.5 -211t-49.5 -258zM545 1563l166 200h92l166 -200h-92l-119 149l-121 -149h-92z" />
<glyph unicode="&#xd5;" d="M66 717q0 154 55 288t150.5 234t223.5 158.5t273 58.5q147 0 276.5 -57.5t223.5 -156.5t148 -234.5t54 -290.5q0 -154 -55 -289t-150.5 -235.5t-223.5 -159t-273 -58.5t-273 58.5t-223.5 159t-150.5 235.5t-55 289zM141 717q0 -139 49.5 -260t134.5 -211t199.5 -142.5 t243.5 -52.5t243.5 52.5t198.5 143.5t133.5 212t49.5 258q0 139 -48.5 261t-133.5 211t-198.5 140t-244.5 51q-129 0 -243.5 -52t-199.5 -142t-134.5 -211t-49.5 -258zM489 1587q16 80 57.5 116t88.5 36q41 0 71.5 -13.5t56 -31t51.5 -30.5t56 -13q23 0 45.5 19.5t36.5 60.5 h64q-16 -80 -57 -116t-89 -36q-41 0 -70.5 14.5t-56 30.5t-52 29.5t-56.5 11.5q-23 0 -45.5 -18.5t-36.5 -59.5h-64z" />
<glyph unicode="&#xd6;" d="M66 717q0 154 55 288t150.5 234t223.5 158.5t273 58.5q147 0 276.5 -57.5t223.5 -156.5t148 -234.5t54 -290.5q0 -154 -55 -289t-150.5 -235.5t-223.5 -159t-273 -58.5t-273 58.5t-223.5 159t-150.5 235.5t-55 289zM141 717q0 -139 49.5 -260t134.5 -211t199.5 -142.5 t243.5 -52.5t243.5 52.5t198.5 143.5t133.5 212t49.5 258q0 139 -48.5 261t-133.5 211t-198.5 140t-244.5 51q-129 0 -243.5 -52t-199.5 -142t-134.5 -211t-49.5 -258zM573 1591v140h97v-140h-97zM850 1591v140h98v-140h-98z" />
<glyph unicode="&#xd7;" horiz-adv-x="983" d="M31 113l407 407l-407 408l53 53l408 -408l407 408l53 -53l-407 -408l407 -407l-53 -56l-407 410l-408 -410z" />
<glyph unicode="&#xd8;" d="M66 717q0 154 55 288t150.5 234t223.5 158.5t273 58.5q147 0 272 -54t222 -153l139 142l47 -50l-141 -143q78 -98 120.5 -219t42.5 -262q0 -154 -55 -289t-150.5 -235.5t-223.5 -159t-273 -58.5q-139 0 -260 51.5t-215 143.5l-146 -145l-49 47l148 149q-86 98 -133 224 t-47 272zM141 717q0 -129 42 -242t116 -201l909 920q-86 88 -197.5 137t-242.5 49q-129 0 -243.5 -52t-199.5 -142t-134.5 -211t-49.5 -258zM346 225q84 -82 191.5 -128t230.5 -46q129 0 243.5 52.5t198.5 143.5t133.5 212t49.5 258q0 123 -37 231.5t-105 194.5z" />
<glyph unicode="&#xd9;" horiz-adv-x="1384" d="M150 508v913h75v-913q0 -102 34 -186t96.5 -144.5t148.5 -93.5t190 -33t191.5 33t149 93.5t95 144.5t33.5 186v913h76v-913q0 -117 -40 -215t-111.5 -169t-172 -111t-221.5 -40t-220 40t-172 111t-112.5 169t-39.5 215zM481 1778h97l172 -211h-84z" />
<glyph unicode="&#xda;" horiz-adv-x="1384" d="M150 508v913h75v-913q0 -102 34 -186t96.5 -144.5t148.5 -93.5t190 -33t191.5 33t149 93.5t95 144.5t33.5 186v913h76v-913q0 -117 -40 -215t-111.5 -169t-172 -111t-221.5 -40t-220 40t-172 111t-112.5 169t-39.5 215zM641 1567l172 211h98l-184 -211h-86z" />
<glyph unicode="&#xdb;" horiz-adv-x="1384" d="M150 508v913h75v-913q0 -102 34 -186t96.5 -144.5t148.5 -93.5t190 -33t191.5 33t149 93.5t95 144.5t33.5 186v913h76v-913q0 -117 -40 -215t-111.5 -169t-172 -111t-221.5 -40t-220 40t-172 111t-112.5 169t-39.5 215zM498 1563l164 200h92l166 -200h-93l-118 149 l-119 -149h-92z" />
<glyph unicode="&#xdc;" horiz-adv-x="1384" d="M150 508v913h75v-913q0 -102 34 -186t96.5 -144.5t148.5 -93.5t190 -33t191.5 33t149 93.5t95 144.5t33.5 186v913h76v-913q0 -117 -40 -215t-111.5 -169t-172 -111t-221.5 -40t-220 40t-172 111t-112.5 169t-39.5 215zM508 1591v140h98v-140h-98zM784 1591v140h99v-140 h-99z" />
<glyph unicode="&#xdd;" horiz-adv-x="1118" d="M12 1421h90l457 -725h2l455 725h90l-508 -807v-614h-76v614zM545 1530l172 211h98l-184 -211h-86z" />
<glyph unicode="&#xde;" horiz-adv-x="1212" d="M172 0v1421h76v-264h493q197 0 309.5 -105.5t112.5 -289.5q0 -86 -30.5 -159t-86 -125t-131 -80.5t-167.5 -28.5h-500v-369h-76zM248 444h500q63 0 123.5 18.5t107.5 57.5t76.5 99.5t29.5 142.5q0 154 -89 236.5t-255 82.5h-493v-637z" />
<glyph unicode="&#xdf;" horiz-adv-x="1222" d="M150 0v1081q0 205 118.5 322t325.5 117q100 0 182 -27t140.5 -76t91 -118.5t32.5 -153.5q0 -111 -64.5 -195t-170.5 -127q160 -37 254 -145.5t94 -267.5q0 -98 -37 -180.5t-103.5 -139.5t-160.5 -89t-207 -32q-102 0 -194 29v76q88 -31 194 -31q76 0 152.5 19.5t138 63.5 t100.5 113.5t39 170.5q0 100 -39 168.5t-100.5 111.5t-136 62.5t-148.5 19.5h-200v76h149q78 0 144.5 22.5t114.5 62.5t75 94t27 118q0 78 -32 134t-83 93t-116.5 55.5t-135.5 18.5q-41 0 -104.5 -11.5t-122 -48t-100.5 -109.5t-42 -196v-1081h-75z" />
<glyph unicode="&#xe0;" horiz-adv-x="1120" d="M63 276q0 90 38 147.5t101.5 92.5t144.5 51.5t165 24.5q88 8 159.5 18.5t123 29.5t79 49t27.5 79q0 74 -31.5 120t-81 72.5t-110 37t-117.5 10.5q-145 0 -237.5 -57.5t-126.5 -166.5h-78q35 141 148.5 219t293.5 78q199 0 307.5 -81.5t108.5 -231.5v-596q0 -41 9 -91 t22 -81h-78q-14 29 -21.5 66.5t-7.5 87.5v20q-63 -90 -180 -141t-275 -51q-70 0 -138 17t-122.5 54t-88.5 92.5t-34 130.5zM145 279q0 -66 33 -109t79 -67.5t98.5 -35t90.5 -10.5q86 0 167 19.5t145.5 59.5t103.5 101.5t39 145.5v242q-31 -29 -74 -46.5t-93 -28.5 t-104.5 -17.5t-109.5 -10.5q-203 -20 -289 -77.5t-86 -165.5zM336 1423h98l170 -209h-84z" />
<glyph unicode="&#xe1;" horiz-adv-x="1120" d="M63 276q0 90 38 147.5t101.5 92.5t144.5 51.5t165 24.5q88 8 159.5 18.5t123 29.5t79 49t27.5 79q0 74 -31.5 120t-81 72.5t-110 37t-117.5 10.5q-145 0 -237.5 -57.5t-126.5 -166.5h-78q35 141 148.5 219t293.5 78q199 0 307.5 -81.5t108.5 -231.5v-596q0 -41 9 -91 t22 -81h-78q-14 29 -21.5 66.5t-7.5 87.5v20q-63 -90 -180 -141t-275 -51q-70 0 -138 17t-122.5 54t-88.5 92.5t-34 130.5zM145 279q0 -66 33 -109t79 -67.5t98.5 -35t90.5 -10.5q86 0 167 19.5t145.5 59.5t103.5 101.5t39 145.5v242q-31 -29 -74 -46.5t-93 -28.5 t-104.5 -17.5t-109.5 -10.5q-203 -20 -289 -77.5t-86 -165.5zM512 1214l170 209h98l-184 -209h-84z" />
<glyph unicode="&#xe2;" horiz-adv-x="1120" d="M63 276q0 90 38 147.5t101.5 92.5t144.5 51.5t165 24.5q88 8 159.5 18.5t123 29.5t79 49t27.5 79q0 74 -31.5 120t-81 72.5t-110 37t-117.5 10.5q-145 0 -237.5 -57.5t-126.5 -166.5h-78q35 141 148.5 219t293.5 78q199 0 307.5 -81.5t108.5 -231.5v-596q0 -41 9 -91 t22 -81h-78q-14 29 -21.5 66.5t-7.5 87.5v20q-63 -90 -180 -141t-275 -51q-70 0 -138 17t-122.5 54t-88.5 92.5t-34 130.5zM145 279q0 -66 33 -109t79 -67.5t98.5 -35t90.5 -10.5q86 0 167 19.5t145.5 59.5t103.5 101.5t39 145.5v242q-31 -29 -74 -46.5t-93 -28.5 t-104.5 -17.5t-109.5 -10.5q-203 -20 -289 -77.5t-86 -165.5zM348 1206l164 203h92l166 -203h-92l-119 152l-121 -152h-90z" />
<glyph unicode="&#xe3;" horiz-adv-x="1120" d="M63 281q0 88 38 145t101.5 92t144.5 51.5t165 24.5q88 8 159.5 18.5t123 30t79 50t27.5 79.5q0 74 -31.5 120t-81 71.5t-110 36t-117.5 10.5q-145 0 -237.5 -57.5t-126.5 -164.5h-78q35 141 148.5 218t293.5 77q199 0 307.5 -81.5t108.5 -229.5v-598q0 -39 9 -90t22 -82 h-78q-29 61 -29 156v18q-63 -90 -180 -141t-275 -51q-70 0 -138 17t-122.5 54t-88.5 92.5t-34 133.5zM145 283q0 -66 33 -109t79 -67.5t98.5 -35t90.5 -10.5q86 0 167 19.5t145.5 59.5t103.5 100.5t39 144.5v242q-31 -29 -74 -46.5t-93 -28.5t-104.5 -16.5t-109.5 -11.5 q-203 -20 -289 -77.5t-86 -163.5zM293 1233q16 80 57 115.5t88 35.5q41 0 71 -13t56.5 -29.5t51 -30t55.5 -13.5q23 0 46 18.5t36 61.5h65q-16 -82 -58 -117.5t-89 -35.5q-39 0 -70 14t-56.5 30.5t-51 30t-56.5 13.5q-23 -2 -45 -20.5t-37 -59.5h-63z" />
<glyph unicode="&#xe4;" horiz-adv-x="1120" d="M63 276q0 90 38 147.5t101.5 92.5t144.5 51.5t165 24.5q88 8 159.5 18.5t123 29.5t79 49t27.5 79q0 74 -31.5 120t-81 72.5t-110 37t-117.5 10.5q-145 0 -237.5 -57.5t-126.5 -166.5h-78q35 141 148.5 219t293.5 78q199 0 307.5 -81.5t108.5 -231.5v-596q0 -41 9 -91 t22 -81h-78q-14 29 -21.5 66.5t-7.5 87.5v20q-63 -90 -180 -141t-275 -51q-70 0 -138 17t-122.5 54t-88.5 92.5t-34 130.5zM145 279q0 -66 33 -109t79 -67.5t98.5 -35t90.5 -10.5q86 0 167 19.5t145.5 59.5t103.5 101.5t39 145.5v242q-31 -29 -74 -46.5t-93 -28.5 t-104.5 -17.5t-109.5 -10.5q-203 -20 -289 -77.5t-86 -165.5zM365 1219v141h96v-141h-96zM641 1219v141h96v-141h-96z" />
<glyph unicode="&#xe5;" horiz-adv-x="1120" d="M63 276q0 90 38 147.5t101.5 92.5t144.5 51.5t165 24.5q88 8 159.5 18.5t123 29.5t79 49t27.5 79q0 74 -31.5 120t-81 72.5t-110 37t-117.5 10.5q-145 0 -237.5 -57.5t-126.5 -166.5h-78q35 141 148.5 219t293.5 78q199 0 307.5 -81.5t108.5 -231.5v-596q0 -41 9 -91 t22 -81h-78q-14 29 -21.5 66.5t-7.5 87.5v20q-63 -90 -180 -141t-275 -51q-70 0 -138 17t-122.5 54t-88.5 92.5t-34 130.5zM145 279q0 -66 33 -109t79 -67.5t98.5 -35t90.5 -10.5q86 0 167 19.5t145.5 59.5t103.5 101.5t39 145.5v242q-31 -29 -74 -46.5t-93 -28.5 t-104.5 -17.5t-109.5 -10.5q-203 -20 -289 -77.5t-86 -165.5zM381 1362q0 70 49 120t119 50q72 0 121 -50t49 -120t-49 -119t-121 -49q-70 0 -119 49t-49 119zM440 1362q0 -47 32 -80t77 -33q47 0 78.5 33t31.5 80t-31.5 80t-78.5 33q-45 0 -77 -33t-32 -80z" />
<glyph unicode="&#xe6;" horiz-adv-x="2009" d="M63 279q0 88 38 145t101.5 92t144.5 51.5t165 24.5q88 8 159.5 18.5t123 29.5t79 49t27.5 79q0 74 -31.5 121t-81 72.5t-110 36t-117.5 10.5q-145 0 -237.5 -57.5t-124.5 -166.5h-80q35 143 148.5 220t293.5 77q193 0 299.5 -76.5t110.5 -218.5q66 131 185.5 213 t270.5 82q102 0 194.5 -40t163 -108.5t115 -162.5t52.5 -201l4 -41h-979v-4q0 -98 36 -185t98.5 -150.5t146 -100.5t182.5 -37q92 0 160.5 23.5t117.5 62.5t81 88t50 103h82q-55 -172 -180 -262.5t-311 -90.5q-166 0 -293 86t-189 228q-31 -143 -158.5 -225t-346.5 -82 q-72 0 -141.5 17t-125 54t-89.5 92.5t-34 133.5zM145 279q0 -66 32 -108t79 -66.5t101.5 -35t97.5 -10.5q213 0 329.5 84t116.5 252v230q-31 -29 -74 -46.5t-93 -28.5t-104.5 -17.5t-109.5 -10.5q-203 -20 -289 -77.5t-86 -165.5zM985 604h887q-14 86 -54 159t-99.5 127 t-134.5 85t-157 31q-84 0 -158.5 -31t-133 -85t-98.5 -127t-52 -159z" />
<glyph unicode="&#xe7;" horiz-adv-x="1150" d="M57 524q0 115 41 216.5t113 177t168 119.5t205 44q174 0 303 -96t182 -256h-80q-51 127 -157.5 201t-247.5 74q-94 0 -176 -38t-143.5 -102.5t-96.5 -152.5t-35 -187q0 -98 35 -184t96.5 -150.5t143 -101.5t176.5 -37q145 0 251.5 74t155.5 203h80q-27 -80 -73 -144.5 t-108.5 -110.5t-139 -72t-164.5 -26l-54 -94q29 14 64 13.5t65.5 -16t52 -45.5t21.5 -73q0 -61 -44 -97t-116 -36q-41 0 -86 18.5t-81 55.5l22 43q31 -27 65.5 -43t75.5 -16q39 0 70 17t31 58q0 35 -24.5 57.5t-67.5 22.5q-18 0 -41 -7t-43 -23l-47 34l71 136 q-98 12 -182 59t-146.5 119.5t-98.5 167t-36 198.5z" />
<glyph unicode="&#xe8;" horiz-adv-x="1163" d="M57 524q0 115 41 216.5t113 177t168 119.5t205 44q119 0 216 -49t166.5 -128t107.5 -177t36 -199h-977q0 -102 37 -190t99.5 -151.5t146.5 -99.5t180 -36q92 0 160.5 23.5t118 62.5t82 88t51.5 103h79q-55 -172 -180 -262.5t-311 -90.5q-113 0 -211 43t-171 117 t-115 174.5t-42 214.5zM141 604h887q-14 86 -54 159t-99.5 126t-134 84t-156.5 31q-84 0 -159 -31t-133.5 -84t-98 -126t-52.5 -159zM348 1423h98l170 -209h-84z" />
<glyph unicode="&#xe9;" horiz-adv-x="1163" d="M57 524q0 115 41 216.5t113 177t168 119.5t205 44q119 0 216 -49t166.5 -128t107.5 -177t36 -199h-977q0 -102 37 -190t99.5 -151.5t146.5 -99.5t180 -36q92 0 160.5 23.5t118 62.5t82 88t51.5 103h79q-55 -172 -180 -262.5t-311 -90.5q-113 0 -211 43t-171 117 t-115 174.5t-42 214.5zM141 604h887q-14 86 -54 159t-99.5 126t-134 84t-156.5 31q-84 0 -159 -31t-133.5 -84t-98 -126t-52.5 -159zM555 1214l172 209h98l-184 -209h-86z" />
<glyph unicode="&#xea;" horiz-adv-x="1163" d="M57 524q0 115 41 216.5t113 177t168 119.5t205 44q119 0 216 -49t166.5 -128t107.5 -177t36 -199h-977q0 -102 37 -190t99.5 -151.5t146.5 -99.5t180 -36q92 0 160.5 23.5t118 62.5t82 88t51.5 103h79q-55 -172 -180 -262.5t-311 -90.5q-113 0 -211 43t-171 117 t-115 174.5t-42 214.5zM141 604h887q-14 86 -54 159t-99.5 126t-134 84t-156.5 31q-84 0 -159 -31t-133.5 -84t-98 -126t-52.5 -159zM369 1206l163 203h93l166 -203h-93l-118 152l-119 -152h-92z" />
<glyph unicode="&#xeb;" horiz-adv-x="1163" d="M57 524q0 115 41 216.5t113 177t168 119.5t205 44q119 0 216 -49t166.5 -128t107.5 -177t36 -199h-977q0 -102 37 -190t99.5 -151.5t146.5 -99.5t180 -36q92 0 160.5 23.5t118 62.5t82 88t51.5 103h79q-55 -172 -180 -262.5t-311 -90.5q-113 0 -211 43t-171 117 t-115 174.5t-42 214.5zM141 604h887q-14 86 -54 159t-99.5 126t-134 84t-156.5 31q-84 0 -159 -31t-133.5 -84t-98 -126t-52.5 -159zM406 1219v141h96v-141h-96zM684 1219v141h96v-141h-96z" />
<glyph unicode="&#xec;" horiz-adv-x="391" d="M-43 1423h98l170 -211h-82zM160 0v1055h76v-1055h-76z" />
<glyph unicode="&#xed;" horiz-adv-x="391" d="M150 1212l172 211h98l-187 -211h-83zM160 0v1055h76v-1055h-76z" />
<glyph unicode="&#xee;" horiz-adv-x="391" d="M-16 1190l166 203h92l166 -203h-93l-120 151l-119 -151h-92zM160 0v1055h76v-1055h-76z" />
<glyph unicode="&#xef;" horiz-adv-x="391" d="M23 1219v141h96v-141h-96zM160 0v1055h76v-1055h-76zM270 1219v141h97v-141h-97z" />
<glyph unicode="&#xf0;" horiz-adv-x="1148" d="M57 500q0 113 41 211t111 171.5t163 116.5t199 43q102 0 189.5 -38.5t154.5 -106.5q-63 127 -157 237.5t-205 196.5l-139 -104l-66 39l144 108q-90 63 -175 101l68 49q86 -39 170 -103l141 107l66 -41l-148 -111q66 -53 124.5 -111.5t107.5 -123.5q117 -154 178 -315.5 t61 -325.5q0 -111 -40.5 -208t-110.5 -171t-163 -116t-200 -42q-106 0 -199 42t-163 116t-111 171t-41 208zM131 500q0 -96 35 -181.5t94 -149t140 -100t171 -36.5t170 36.5t139.5 100t94.5 149t35 181.5q0 98 -35 184t-94.5 150.5t-139 101.5t-170.5 37q-90 0 -171 -37 t-140 -101.5t-94 -150.5t-35 -184z" />
<glyph unicode="&#xf1;" horiz-adv-x="1173" d="M150 0v1055h75v-178q57 94 155.5 149t225.5 55q205 0 317.5 -118.5t112.5 -325.5v-637h-75v637q0 174 -91.5 272.5t-265.5 98.5q-80 0 -149.5 -28t-119.5 -78t-80 -117.5t-30 -147.5v-637h-75zM334 1233q16 80 57 115.5t88 35.5q41 0 71 -13t56.5 -29.5t51 -30 t55.5 -13.5q23 0 46 18.5t36 61.5h65q-16 -82 -58 -117.5t-89 -35.5q-39 0 -70 14t-56.5 30.5t-51 30t-56.5 13.5q-23 -2 -45 -20.5t-37 -59.5h-63z" />
<glyph unicode="&#xf2;" horiz-adv-x="1165" d="M57 524q0 115 42 216.5t114 177t167 119.5t204 44t205 -44t167.5 -119.5t113.5 -177t42 -216.5t-42 -214t-113.5 -174t-168 -118t-204.5 -43q-109 0 -204 43t-167 118t-114 174.5t-42 213.5zM133 524q0 -98 36 -185t97.5 -151.5t143.5 -102.5t174 -38q94 0 176 38 t143.5 102.5t96 151.5t34.5 185q0 100 -34.5 188.5t-96 155t-143.5 104.5t-176 38q-92 0 -174 -38t-143.5 -104.5t-97.5 -154.5t-36 -189zM346 1423h98l170 -209h-84z" />
<glyph unicode="&#xf3;" horiz-adv-x="1165" d="M57 524q0 115 42 216.5t114 177t167 119.5t204 44t205 -44t167.5 -119.5t113.5 -177t42 -216.5t-42 -214t-113.5 -174t-168 -118t-204.5 -43q-109 0 -204 43t-167 118t-114 174.5t-42 213.5zM133 524q0 -98 36 -185t97.5 -151.5t143.5 -102.5t174 -38q94 0 176 38 t143.5 102.5t96 151.5t34.5 185q0 100 -34.5 188.5t-96 155t-143.5 104.5t-176 38q-92 0 -174 -38t-143.5 -104.5t-97.5 -154.5t-36 -189zM551 1214l170 209h98l-184 -209h-84z" />
<glyph unicode="&#xf4;" horiz-adv-x="1165" d="M57 524q0 115 42 216.5t114 177t167 119.5t204 44t205 -44t167.5 -119.5t113.5 -177t42 -216.5t-42 -214t-113.5 -174t-168 -118t-204.5 -43q-109 0 -204 43t-167 118t-114 174.5t-42 213.5zM133 524q0 -98 36 -185t97.5 -151.5t143.5 -102.5t174 -38q94 0 176 38 t143.5 102.5t96 151.5t34.5 185q0 100 -34.5 188.5t-96 155t-143.5 104.5t-176 38q-92 0 -174 -38t-143.5 -104.5t-97.5 -154.5t-36 -189zM365 1206l165 203h93l165 -203h-92l-121 152l-118 -152h-92z" />
<glyph unicode="&#xf5;" horiz-adv-x="1165" d="M57 524q0 115 42 216.5t114 177t167 119.5t204 44t205 -44t167.5 -119.5t113.5 -177t42 -216.5t-42 -214t-113.5 -174t-168 -118t-204.5 -43q-109 0 -204 43t-167 118t-114 174.5t-42 213.5zM133 524q0 -98 36 -185t97.5 -151.5t143.5 -102.5t174 -38q94 0 176 38 t143.5 102.5t96 151.5t34.5 185q0 100 -34.5 188.5t-96 155t-143.5 104.5t-176 38q-92 0 -174 -38t-143.5 -104.5t-97.5 -154.5t-36 -189zM305 1233q16 80 57 115.5t89 35.5q41 0 71.5 -13t56 -29.5t51 -30t56.5 -13.5q23 0 45.5 18.5t36.5 61.5h63q-16 -82 -57 -117.5 t-88 -35.5q-41 0 -70.5 14t-56.5 30.5t-52.5 30t-55.5 13.5q-23 -2 -45.5 -20.5t-36.5 -59.5h-64z" />
<glyph unicode="&#xf6;" horiz-adv-x="1165" d="M57 524q0 115 42 216.5t114 177t167 119.5t204 44t205 -44t167.5 -119.5t113.5 -177t42 -216.5t-42 -214t-113.5 -174t-168 -118t-204.5 -43q-109 0 -204 43t-167 118t-114 174.5t-42 213.5zM133 524q0 -98 36 -185t97.5 -151.5t143.5 -102.5t174 -38q94 0 176 38 t143.5 102.5t96 151.5t34.5 185q0 100 -34.5 188.5t-96 155t-143.5 104.5t-176 38q-92 0 -174 -38t-143.5 -104.5t-97.5 -154.5t-36 -189zM395 1219v141h97v-141h-97zM672 1219v141h96v-141h-96z" />
<glyph unicode="&#xf7;" horiz-adv-x="319" d="M123 547v190h76v-190h-76z" />
<glyph unicode="&#xf8;" horiz-adv-x="1165" d="M57 524q0 115 42 216.5t114 177t167 119.5t204 44q104 0 196 -40t162 -109l105 104l49 -47l-107 -108q57 -72 90 -162.5t33 -194.5q0 -115 -42 -214t-113.5 -174t-168 -118t-204.5 -43q-100 0 -190.5 38t-160.5 104l-108 -111l-49 47l110 113q-59 72 -94 163t-35 195z M133 524q0 -86 28.5 -164.5t78.5 -140.5l651 660q-59 61 -138 96t-169 35q-92 0 -174 -38t-143.5 -104.5t-97.5 -154.5t-36 -189zM285 168q59 -57 136 -89t163 -32q94 0 176 38t143.5 102.5t96 151.5t34.5 185q0 86 -25.5 164t-72.5 139z" />
<glyph unicode="&#xf9;" horiz-adv-x="1173" d="M141 418v637h76v-637q0 -80 27.5 -147.5t77 -116t116 -76t146.5 -27.5t147.5 27.5t116.5 76t76.5 116t27.5 147.5v637h76v-1055h-76v174q-53 -92 -148 -145.5t-220 -53.5q-96 0 -177 33t-140.5 92.5t-92.5 140.5t-33 177zM371 1423h98l172 -209h-84z" />
<glyph unicode="&#xfa;" horiz-adv-x="1173" d="M141 418v637h76v-637q0 -80 27.5 -147.5t77 -116t116 -76t146.5 -27.5t147.5 27.5t116.5 76t76.5 116t27.5 147.5v637h76v-1055h-76v174q-53 -92 -148 -145.5t-220 -53.5q-96 0 -177 33t-140.5 92.5t-92.5 140.5t-33 177zM543 1214l172 209h98l-184 -209h-86z" />
<glyph unicode="&#xfb;" horiz-adv-x="1173" d="M141 418v637h76v-637q0 -80 27.5 -147.5t77 -116t116 -76t146.5 -27.5t147.5 27.5t116.5 76t76.5 116t27.5 147.5v637h76v-1055h-76v174q-53 -92 -148 -145.5t-220 -53.5q-96 0 -177 33t-140.5 92.5t-92.5 140.5t-33 177zM379 1206l164 203h92l166 -203h-92l-119 152 l-121 -152h-90z" />
<glyph unicode="&#xfc;" horiz-adv-x="1173" d="M141 418v637h76v-637q0 -80 27.5 -147.5t77 -116t116 -76t146.5 -27.5t147.5 27.5t116.5 76t76.5 116t27.5 147.5v637h76v-1055h-76v174q-53 -92 -148 -145.5t-220 -53.5q-96 0 -177 33t-140.5 92.5t-92.5 140.5t-33 177zM393 1219v141h96v-141h-96zM672 1219v141h96 v-141h-96z" />
<glyph unicode="&#xfd;" horiz-adv-x="911" d="M20 1055h82l355 -946l358 946h80l-455 -1209q-57 -152 -162.5 -210t-246.5 -31v71q123 -18 207 25t131 172l49 129zM434 1214l170 209h98l-184 -209h-84z" />
<glyph unicode="&#xfe;" horiz-adv-x="1245" d="M139 -469v1890h76v-622q33 63 79 115.5t104.5 89t126 57t141.5 20.5q109 0 205 -44t167.5 -119.5t112.5 -177t41 -216.5t-41 -214t-112.5 -174t-168 -118t-204.5 -43q-147 0 -266 77t-185 202v-723h-76zM215 524q0 -98 36 -184t97.5 -150.5t143 -101.5t174.5 -37 q92 0 174 37t143 101.5t97 150.5t36 184t-36 186.5t-97 153t-143 102.5t-174 38t-174 -38t-143.5 -102.5t-97.5 -152.5t-36 -187z" />
<glyph unicode="&#xff;" horiz-adv-x="911" d="M20 1055h82l355 -946l358 946h80l-455 -1209q-57 -152 -162.5 -210t-246.5 -31v71q123 -18 207 25t131 172l49 129zM283 1219v141h96v-141h-96zM559 1219v141h96v-141h-96z" />
<glyph unicode="&#x152;" horiz-adv-x="2447" d="M66 717q0 154 55 288t150.5 234t224.5 158.5t274 58.5q104 0 199.5 -29.5t176.5 -83t144.5 -130t104.5 -169.5v377h942v-75h-867v-562h779v-77h-779v-631h867v-76h-942v395q-41 -92 -105.5 -170t-145.5 -133t-175.5 -86t-198.5 -31q-145 0 -274 58.5t-224.5 159 t-150.5 235.5t-55 289zM141 717q0 -137 49.5 -258t135.5 -212t200.5 -143.5t243.5 -52.5t242.5 52.5t198.5 143.5t134.5 212t49.5 260t-48.5 260t-133.5 210t-198.5 140t-244.5 51q-129 0 -243.5 -52t-200.5 -142t-135.5 -211t-49.5 -258z" />
<glyph unicode="&#x153;" horiz-adv-x="2142" d="M57 524q0 115 41 216.5t113 177t168 119.5t205 44q86 0 162.5 -27.5t140 -76.5t112 -116.5t72.5 -147.5q27 80 75 147.5t111.5 116.5t141.5 76.5t164 27.5q117 0 214 -49t166.5 -128t107.5 -177t38 -199h-977q0 -102 36 -190t98.5 -151.5t146.5 -99.5t180 -36 q92 0 160.5 23.5t118 62.5t81 88t49.5 103h82q-53 -172 -179 -262.5t-312 -90.5q-88 0 -168 27t-144.5 75t-113.5 114.5t-76 146.5q-27 -80 -75 -146.5t-110.5 -114.5t-139 -75t-162.5 -27q-109 0 -205 43t-168 118t-113 174.5t-41 213.5zM133 524q0 -98 36 -184 t97.5 -150.5t143.5 -101.5t174 -37t174 37t143.5 101.5t97 150.5t35.5 184q0 100 -35.5 187.5t-97 153t-143.5 103.5t-174 38t-174 -38t-143.5 -103.5t-97.5 -152.5t-36 -188zM1116 604h887q-12 86 -52 159t-98.5 127t-133 85t-156.5 31q-84 0 -160 -31t-134.5 -85 t-98.5 -127t-54 -159z" />
<glyph unicode="&#x178;" horiz-adv-x="1118" d="M12 1421h90l457 -725h2l455 725h90l-508 -807v-614h-76v614zM377 1591v140h96v-140h-96zM653 1591v140h97v-140h-97z" />
<glyph unicode="&#x2c6;" horiz-adv-x="808" d="M195 1208l165 203h93l165 -203h-96l-116 148l-115 -148h-96z" />
<glyph unicode="&#x2dc;" horiz-adv-x="808" d="M143 1233q16 80 57.5 115.5t88.5 35.5q41 0 70.5 -13t56 -29.5t51.5 -30t55 -13.5q23 0 46.5 18.5t35.5 61.5h66q-16 -82 -58.5 -117.5t-89.5 -35.5q-39 0 -69.5 14t-56 30.5t-51.5 30t-56 13.5q-23 -2 -45.5 -20.5t-36.5 -59.5h-64z" />
<glyph unicode="&#x2000;" horiz-adv-x="943" />
<glyph unicode="&#x2001;" horiz-adv-x="1886" />
<glyph unicode="&#x2002;" horiz-adv-x="943" />
<glyph unicode="&#x2003;" horiz-adv-x="1886" />
<glyph unicode="&#x2004;" horiz-adv-x="628" />
<glyph unicode="&#x2005;" horiz-adv-x="471" />
<glyph unicode="&#x2006;" horiz-adv-x="314" />
<glyph unicode="&#x2007;" horiz-adv-x="314" />
<glyph unicode="&#x2008;" horiz-adv-x="235" />
<glyph unicode="&#x2009;" horiz-adv-x="377" />
<glyph unicode="&#x200a;" horiz-adv-x="104" />
<glyph unicode="&#x2010;" horiz-adv-x="616" d="M88 528v76h440v-76h-440z" />
<glyph unicode="&#x2011;" horiz-adv-x="616" d="M88 528v76h440v-76h-440z" />
<glyph unicode="&#x2012;" horiz-adv-x="616" d="M88 528v76h440v-76h-440z" />
<glyph unicode="&#x2013;" horiz-adv-x="1087" d="M90 528v76h911v-76h-911z" />
<glyph unicode="&#x2014;" horiz-adv-x="1996" d="M90 528v76h1821v-76h-1821z" />
<glyph unicode="&#x2018;" horiz-adv-x="305" d="M80 1032v225q0 43 14.5 75t37 53.5t51 31.5t59.5 10v-69q-41 -2 -64.5 -28.5t-23.5 -72.5v-225h-74z" />
<glyph unicode="&#x2019;" horiz-adv-x="303" d="M66 1026v70q41 2 64.5 28.5t23.5 71.5v225h73v-225q0 -43 -14 -74.5t-36.5 -53t-51.5 -32t-59 -10.5z" />
<glyph unicode="&#x201a;" horiz-adv-x="303" d="M55 -135q41 2 64.5 28.5t23.5 71.5v225h74v-225q0 -43 -14.5 -74.5t-37 -53t-51 -32t-59.5 -10.5v70z" />
<glyph unicode="&#x201c;" horiz-adv-x="542" d="M80 1032v225q0 43 14.5 75t37 53.5t51 31.5t59.5 10v-69q-41 -2 -64.5 -28.5t-23.5 -72.5v-225h-74zM317 1032v225q0 43 14.5 75t37 53.5t51.5 31.5t59 10v-69q-41 -2 -64.5 -28.5t-23.5 -72.5v-225h-74z" />
<glyph unicode="&#x201d;" horiz-adv-x="540" d="M66 1026v70q41 2 64.5 28.5t23.5 71.5v225h73v-225q0 -43 -14 -74.5t-36.5 -53t-51.5 -32t-59 -10.5zM303 1026v70q41 2 64.5 28.5t23.5 71.5v225h74v-225q0 -43 -14.5 -74.5t-37 -53t-51 -32t-59.5 -10.5z" />
<glyph unicode="&#x201e;" horiz-adv-x="540" d="M55 -135q41 2 64.5 28.5t23.5 71.5v225h74v-225q0 -43 -14.5 -74.5t-37 -53t-51 -32t-59.5 -10.5v70zM293 -135q41 2 64.5 28.5t23.5 71.5v225h74v-225q0 -43 -14.5 -74.5t-37 -53t-51 -32t-59.5 -10.5v70z" />
<glyph unicode="&#x2022;" horiz-adv-x="641" d="M102 748q0 45 17.5 83.5t46.5 68.5t68.5 47.5t87.5 17.5q45 0 83.5 -17.5t68.5 -47.5t47.5 -68.5t17.5 -83.5q0 -47 -17.5 -87t-47.5 -69t-68.5 -46.5t-83.5 -17.5q-47 0 -87 17.5t-69 46.5t-46.5 68.5t-17.5 87.5z" />
<glyph unicode="&#x2026;" horiz-adv-x="1488" d="M125 0v190h76v-190h-76zM709 0v190h75v-190h-75zM1292 0v190h76v-190h-76z" />
<glyph unicode="&#x202f;" horiz-adv-x="377" />
<glyph unicode="&#x2039;" horiz-adv-x="344" d="M41 563v99l266 221v-99l-211 -172l211 -172v-98z" />
<glyph unicode="&#x203a;" horiz-adv-x="344" d="M41 342v98l211 172l-211 172v99l266 -221v-99z" />
<glyph unicode="&#x205f;" horiz-adv-x="471" />
<glyph unicode="&#x2122;" horiz-adv-x="1804" d="M37 1348v73h649v-73h-287v-820h-75v820h-287zM817 528v893h84l350 -798h2l353 798h80h2v-893h-76v713h-4l-314 -713h-86l-311 713h-2v-713h-78z" />
<glyph unicode="&#x25fc;" horiz-adv-x="1055" d="M0 0v1055h1055v-1055h-1055z" />
</font>
</defs>
</svg>
